<svg id="Layer_5" enable-background="new 0 0 64 64" height="512" viewBox="0 0 64 64" width="512" xmlns="http://www.w3.org/2000/svg"><g><g><g><path d="m50 12.38c0-1.31-1.07-2.38-2.38-2.38h-1.19l.57-1 3.31-5.8c.43-.74 1.22-1.2 2.07-1.2.41 0 .81.1 1.16.3l7.23 4.02c.76.42 1.23 1.22 1.23 2.08v.04c0 .37-.09.73-.25 1.06l-5.2 10.4-4.55-.3-2-.13z" fill="#e6e9ed"/></g><g><path d="m43.69 3.2 3.31 5.8-.57 1h-8.05c-1.31 0-2.38 1.07-2.38 2.38v4.62l-3.75-7.5c-.16-.33-.25-.69-.25-1.06v-.04c0-.86.47-1.66 1.23-2.08l7.23-4.02c.35-.2.75-.3 1.16-.3.85 0 1.64.46 2.07 1.2z" fill="#b4dd7f"/></g><g><path d="m47.62 10c1.31 0 2.38 1.07 2.38 2.38v7.09l-4-.27-6-.4-4-.27v-1.53-4.62c0-1.31 1.07-2.38 2.38-2.38h8.05z" fill="#fcd770"/></g><g><path d="m28 10v2h-8c-1.1 0-2-.9-2-2 0-.55.22-1.05.59-1.41.36-.37.86-.59 1.41-.59h6c1.1 0 2 .9 2 2z" fill="#aab2bd"/></g><g><circle cx="58" cy="46" fill="#969faa" r="4"/></g><g><path d="m56.55 19.9-4.55-.3-2-.13-4-.27-6-.4-4-.27-2-.13-6-.4v8l1.59-1.59c.26-.26.62-.41 1-.41.78 0 1.41.63 1.41 1.41v4.59h2c2.21 0 4 1.79 4 4v2h8 6 2c2.21 0 4-1.79 4-4v-2-6-4z" fill="#ff826e"/></g><g><path d="m34 30c2.21 0 4 1.79 4 4v2 6 16c0 2.21-1.79 4-4 4h-28c-2.21 0-4-1.79-4-4v-24c0-2.21 1.79-4 4-4h18l4-4 1.59-1.59c.26-.26.62-.41 1-.41.78 0 1.41.63 1.41 1.41v4.59z" fill="#e6e9ed"/></g><g><path d="m12 56v2h-4v-14h4v2z" fill="#b4dd7f"/></g><g><path d="m30 46c1.1 0 2 .9 2 2 0 .55-.22 1.05-.59 1.41-.36.37-.86.59-1.41.59 1.1 0 2 .9 2 2 0 .55-.22 1.05-.59 1.41-.36.37-.86.59-1.41.59.55 0 1.05.22 1.41.59.37.36.59.86.59 1.41 0 1.1-.9 2-2 2h-12.34c-1.06 0-2.08-.42-2.83-1.17l-.83-.83h-2v-10l1.99-1.33c.66-.44 1.43-.67 2.22-.67h.49c1.44 0 2.78-.72 3.58-1.92.47-.7.72-1.53.72-2.38v-4.7c0-.55.45-1 1-1 1.66 0 3 1.34 3 3v5h5c.55 0 1.05.22 1.41.59.37.36.59.86.59 1.41 0 1.1-.9 2-2 2z" fill="#f0d0b4"/></g></g><g><path d="m58 41h-19v-4h15c2.757 0 5-2.243 5-5v-12.936l-.884-.059 4.526-9.054c.234-.467.358-.99.358-1.549 0-1.229-.667-2.361-1.74-2.957l-7.235-4.021c-.503-.278-1.07-.424-1.642-.424-1.211 0-2.336.653-2.937 1.704l-2.446 4.281-2.446-4.281c-.601-1.051-1.726-1.704-2.937-1.704-.572 0-1.14.146-1.643.426l-7.234 4.02c-1.073.595-1.74 1.728-1.74 2.992 0 .523.124 1.047.357 1.513l3.643 7.285v.228l-6-.4v-7.064c0-1.654-1.346-3-3-3h-6c-1.654 0-3 1.346-3 3s1.346 3 3 3h7v12.586l-3.414 3.414h-17.586c-2.757 0-5 2.243-5 5v24c0 2.757 2.243 5 5 5h28c2.757 0 5-2.243 5-5v-15h15.026c-.635.838-1.026 1.87-1.026 3 0 2.757 2.243 5 5 5s5-2.243 5-5-2.243-5-5-5zm-20.026-10h7.026v4h-6v-1c0-1.13-.391-2.162-1.026-3zm-5.016-6h6.042v4h-5-1v-3.586c0-.142-.018-.279-.042-.414zm6.042-5.264v3.264h-4v-3.531zm18 1.2v2.064h-4v-2.331zm-10 8.064v-4h4v4zm4 2v4h-4v-4zm-6-2h-4v-4h4zm8-4h4v4h-4zm-2-4.464v2.464h-4v-2.731zm-6 2.464h-4v-3.131l4 .267zm9 12h-1v-4h4v1c0 1.654-1.346 3-3 3zm-2.817-31.304c.361-.633 1.232-.875 1.872-.522l7.234 4.02c.439.243.711.706.711 1.244 0 .214-.051.427-.146.618l-4.902 9.806-4.952-.331v-6.148c0-1.692-1.253-3.085-2.877-3.332zm-18.037 5.359c-.095-.191-.146-.404-.146-.653 0-.502.272-.966.711-1.209l7.233-4.019c.644-.356 1.512-.111 1.873.521l3.031 5.305h-7.466c-1.864 0-3.382 1.518-3.382 3.383v.381zm3.854 3.328c0-.763.62-1.383 1.383-1.383h9.234c.763 0 1.383.62 1.383 1.383v6.015l-12-.8zm-4 6.953v3.664h-2.414c-.583 0-1.149.225-1.586.608v-4.539zm-13-8.336c-.552 0-1-.448-1-1s.448-1 1-1h6c.552 0 1 .448 1 1v1zm17 47c0 1.654-1.346 3-3 3h-28c-1.654 0-3-1.346-3-3v-24c0-1.654 1.346-3 3-3h18.414l5.879-5.879c.238-.238.707-.045.707.293v5.586h3c1.654 0 3 1.346 3 3zm21-9c-1.654 0-3-1.346-3-3s1.346-3 3-3 3 1.346 3 3-1.346 3-3 3z"/><path d="m30 41h-4v-4c0-2.206-1.794-4-4-4-1.103 0-2 .897-2 2v4.697c0 .654-.191 1.288-.555 1.832-.613.921-1.64 1.471-2.748 1.471h-.486c-.991 0-1.95.29-2.773.84l-.438.292v-1.132h-6v16h6v-2h.586l.535.535c.944.944 2.2 1.465 3.536 1.465h12.343c1.654 0 3-1.346 3-3 0-.771-.301-1.468-.78-2 .48-.532.78-1.229.78-2s-.301-1.468-.78-2c.48-.532.78-1.229.78-2s-.301-1.468-.78-2c.48-.532.78-1.229.78-2 0-1.654-1.346-3-3-3zm-19 16h-2v-12h2zm19 0h-12.343c-.802 0-1.556-.313-2.122-.879l-1.121-1.121h-1.414v-8.465l1.547-1.031c.494-.33 1.069-.504 1.664-.504h.486c1.777 0 3.427-.883 4.412-2.361.583-.873.891-1.891.891-2.942v-4.697c1.103 0 2 .897 2 2v6h6c.552 0 1 .448 1 1s-.448 1-1 1h-3v2h3c.552 0 1 .448 1 1s-.448 1-1 1h-3v2h3c.552 0 1 .448 1 1s-.448 1-1 1h-3v2h3c.552 0 1 .448 1 1s-.448 1-1 1z"/><path d="m5 17h14v2h-14z"/><path d="m5 21h14v2h-14z"/><path d="m13 25h2v2h-2z"/><path d="m17 25h2v2h-2z"/><path d="m5 25h2v2h-2z"/><path d="m9 25h2v2h-2z"/><path d="m5 33h10v2h-10z"/><path d="m5 37h10v2h-10z"/></g></g></svg>