<?xml version="1.0" encoding="UTF-8" standalone="no"?> <svg xmlns="http://www.w3.org/2000/svg" viewBox="0 0 64 64"><g id="Outline"><path d="M47,2H11a1,1,0,0,0-1,1V49a1,1,0,0,0,1,1H40.437a2.411,2.411,0,0,1,.209.975,4.308,4.308,0,0,0,1.234,3.056l.642.766A2.035,2.035,0,0,1,43,56.107V62h2V56.107a4.038,4.038,0,0,0-.946-2.6l-.7-.829a2.389,2.389,0,0,1-.708-1.706,4.383,4.383,0,0,0-1.292-3.121l-2.536-2.536a1,1,0,1,1,1.426-1.4l5.994,5.8A1.169,1.169,0,0,0,47,50a1,1,0,0,0,1-1V38.414l4,4V62h2V42a1,1,0,0,0-.293-.707L48,35.586V3A1,1,0,0,0,47,2ZM19.026,4A4.948,4.948,0,0,0,18,7v3H15a4.948,4.948,0,0,0-3,1.026V4ZM37.4,42.489a3,3,0,0,0,0,4.243L38.672,48H12V15a3,3,0,0,1,3-3h4a1,1,0,0,0,1-1V7a3,3,0,0,1,3-3H46V46.7l-4.354-4.216A3,3,0,0,0,37.4,42.489Z"/><path d="M31.262,13.325,30.7,15.243a6.032,6.032,0,0,1,3.222,2.32l1.639-1.146A8.037,8.037,0,0,0,31.262,13.325Z"/><path d="M41,20H39.949A11.014,11.014,0,0,0,33,10.764V10a4,4,0,0,0-8,0v.764A11.014,11.014,0,0,0,18.051,20H17a1,1,0,0,0-1,1v2a3.1,3.1,0,0,0,3.182,3H38.818A3.1,3.1,0,0,0,42,23V21A1,1,0,0,0,41,20ZM27,10a2,2,0,0,1,4,0v.191a10.567,10.567,0,0,0-4,0Zm2,2a9.01,9.01,0,0,1,8.941,8H20.059A9.01,9.01,0,0,1,29,12ZM40,23a1.1,1.1,0,0,1-1.182,1H19.182A1.1,1.1,0,0,1,18,23V22H40Z"/><rect x="16" y="28" width="5" height="2"/><rect x="16" y="32" width="5" height="2"/><rect x="16" y="36" width="5" height="2"/><rect x="23" y="28" width="19" height="2"/><rect x="23" y="32" width="19" height="2"/><rect x="23" y="36" width="19" height="2"/><rect x="16" y="40" width="5" height="2"/><rect x="23" y="40" width="12" height="2"/><rect x="16" y="44" width="5" height="2"/><rect x="23" y="44" width="12" height="2"/></g></svg>