<?xml version="1.0" encoding="iso-8859-1"?>
<!-- Generator: Adobe Illustrator 19.0.0, SVG Export Plug-In . SVG Version: 6.00 Build 0)  -->
<svg version="1.1" id="Layer_1" xmlns="http://www.w3.org/2000/svg" xmlns:xlink="http://www.w3.org/1999/xlink" x="0px" y="0px"
	 viewBox="0 0 480.01 480.01" style="enable-background:new 0 0 480.01 480.01;" xml:space="preserve">
<circle style="fill:#DD6743;" cx="168.005" cy="120.01" r="40"/>
<path style="fill:#EDE7A6;" d="M288.005,384.01c0-28.68,12.712-54.392,32.712-72h-0.712V27.322l-2.344,2.344
	c-2.696,2.696-6.92,3.128-10.096,1l-19.56-13.04l-19.56,13.04c-2.688,1.8-6.184,1.8-8.872,0l-19.568-13.04l-19.56,13.04
	c-2.688,1.8-6.184,1.8-8.872,0l-19.568-13.04l-19.56,13.04c-2.688,1.8-6.184,1.8-8.872,0l-19.568-13.04l-19.56,13.04
	c-2.688,1.8-6.184,1.8-8.872,0l-19.568-13.04l-19.56,13.04c-2.688,1.8-6.184,1.8-8.872,0l-19.568-13.04l-19.56,13.04
	c-3.168,2.128-7.4,1.704-10.096-1l-2.344-2.344V432.01c0,17.648,14.352,32,32,32h283.048
	C305.141,446.802,288.005,417.386,288.005,384.01z M288.005,232.01h16v16h-16V232.01z M288.005,272.01h16v16h-16V272.01z
	 M192.005,408.01h-144v-16h144V408.01z M192.005,368.01h-144v-16h144V368.01z M192.005,328.01h-144v-16h144V328.01z M192.005,288.01
	h-144v-16h144V288.01z M192.005,248.01h-144v-16h144V248.01z M128.005,208.01v-16h16v16H128.005z M160.005,208.01v-16h16v16H160.005
	z M208.005,208.01h-16v-16h16V208.01z M168.005,176.01c-30.88,0-56-25.128-56-56s25.12-56,56-56s56,25.128,56,56
	S198.885,176.01,168.005,176.01z M272.005,408.01h-32v-16h32V408.01z M272.005,368.01h-32v-16h32V368.01z M272.005,328.01h-32v-16
	h32V328.01z M272.005,288.01h-32v-16h32V288.01z M272.005,248.01h-32v-16h32V248.01z"/>
<path style="fill:#78BA8C;" d="M443.565,94.65l-19.568-13.056l-19.56,13.016c-2.68,1.784-6.184,1.784-8.88-0.016L375.981,81.49
	l-19.56,12.936c-2.704,1.792-6.224,1.76-8.896-0.048l-11.52-7.792v214.408c14.144-8.208,30.504-12.984,48-12.984
	c33.368,0,62.792,17.136,80,43.048V86.946l-11.568,7.704C449.749,96.45,446.253,96.45,443.565,94.65z"/>
<path style="fill:#A6E0B5;" d="M384.005,304.01c-44.112,0-80,35.888-80,80s35.888,80,80,80s80-35.888,80-80
	S428.117,304.01,384.005,304.01z M373.661,421.666c-1.56,1.56-3.608,2.344-5.656,2.344s-4.096-0.784-5.656-2.344l-32-32
	l11.312-11.312l26.344,26.344l58.344-58.344l11.312,11.312L373.661,421.666z"/>
<g>
	<path style="fill:#42342A;" d="M168.005,64.01c-30.88,0-56,25.128-56,56s25.12,56,56,56s56-25.128,56-56
		S198.885,64.01,168.005,64.01z M168.005,160.01c-22.056,0-40-17.944-40-40s17.944-40,40-40s40,17.944,40,40
		S190.061,160.01,168.005,160.01z"/>
	<rect x="48.005" y="232.01" style="fill:#42342A;" width="144" height="16"/>
	<rect x="48.005" y="272.01" style="fill:#42342A;" width="144" height="16"/>
	<rect x="48.005" y="312.01" style="fill:#42342A;" width="144" height="16"/>
	<rect x="48.005" y="352.01" style="fill:#42342A;" width="144" height="16"/>
	<rect x="48.005" y="392.01" style="fill:#42342A;" width="144" height="16"/>
	<rect x="240.005" y="232.01" style="fill:#42342A;" width="32" height="16"/>
	<rect x="240.005" y="272.01" style="fill:#42342A;" width="32" height="16"/>
	<rect x="288.005" y="272.01" style="fill:#42342A;" width="16" height="16"/>
	<rect x="288.005" y="232.01" style="fill:#42342A;" width="16" height="16"/>
	<rect x="240.005" y="312.01" style="fill:#42342A;" width="32" height="16"/>
	<rect x="240.005" y="352.01" style="fill:#42342A;" width="32" height="16"/>
	<rect x="240.005" y="392.01" style="fill:#42342A;" width="32" height="16"/>
	<path style="fill:#42342A;" d="M475.781,64.954c-2.592-1.384-5.76-1.224-8.208,0.4l-19.568,13.024l-19.56-13.056
		c-2.68-1.792-6.184-1.8-8.872-0.008l-19.56,13.016l-19.56-13.096c-2.68-1.792-6.168-1.8-8.864-0.024l-19.536,12.92l-16.048-10.864
		V8.01c0-3.232-1.952-6.16-4.936-7.392c-3-1.24-6.424-0.552-8.72,1.736l-11.368,11.36l-18.536-12.36c-2.688-1.8-6.184-1.8-8.872,0
		l-19.568,13.04l-19.568-13.04c-2.688-1.8-6.184-1.8-8.872,0l-19.56,13.04l-19.56-13.04c-2.688-1.8-6.184-1.8-8.872,0l-19.568,13.04
		l-19.56-13.04c-2.688-1.8-6.184-1.8-8.872,0l-19.568,13.04l-19.56-13.04c-2.688-1.8-6.184-1.8-8.872,0l-19.568,13.04L52.437,1.354
		c-2.688-1.8-6.184-1.8-8.872,0l-18.544,12.36l-11.36-11.36c-2.288-2.296-5.72-2.992-8.72-1.736C1.957,1.85,0.005,4.778,0.005,8.01
		v424c0,26.472,21.528,48,48,48h336c52.936,0,96-43.064,96-96v-312C480.005,69.058,478.381,66.354,475.781,64.954z M48.005,464.01
		c-17.648,0-32-14.352-32-32V27.322l2.344,2.344c2.696,2.704,6.928,3.128,10.096,1l19.56-13.04l19.568,13.04
		c2.688,1.8,6.184,1.8,8.872,0l19.56-13.04l19.56,13.04c2.688,1.8,6.184,1.8,8.872,0l19.568-13.04l19.56,13.04
		c2.688,1.8,6.184,1.8,8.872,0l19.568-13.04l19.56,13.04c2.688,1.8,6.184,1.8,8.872,0l19.568-13.04l19.568,13.04
		c2.688,1.8,6.184,1.8,8.872,0l19.56-13.04l19.56,13.04c3.176,2.128,7.4,1.696,10.096-1l2.344-2.344V312.01h0.712
		c-20,17.608-32.712,43.32-32.712,72c0,33.376,17.136,62.792,43.048,80H48.005z M384.005,464.01c-44.112,0-80-35.888-80-80
		s35.888-80,80-80s80,35.888,80,80S428.117,464.01,384.005,464.01z M384.005,288.01c-17.496,0-33.856,4.776-48,12.992V86.586
		l11.512,7.8c2.672,1.808,6.192,1.832,8.896,0.048l19.56-12.936l19.576,13.104c2.688,1.8,6.192,1.8,8.88,0.016l19.56-13.016
		l19.568,13.056c2.688,1.8,6.184,1.8,8.872,0l11.576-7.712v244.112C446.797,305.146,417.373,288.01,384.005,288.01z"/>
	<path style="fill:#42342A;" d="M368.005,404.698l-26.344-26.344l-11.312,11.312l32,32c1.56,1.56,3.608,2.344,5.656,2.344
		s4.096-0.784,5.656-2.344l64-64l-11.312-11.312L368.005,404.698z"/>
	<rect x="160.005" y="192.01" style="fill:#42342A;" width="16" height="16"/>
	<rect x="128.005" y="192.01" style="fill:#42342A;" width="16" height="16"/>
	<rect x="192.005" y="192.01" style="fill:#42342A;" width="16" height="16"/>
</g>
<g>
</g>
<g>
</g>
<g>
</g>
<g>
</g>
<g>
</g>
<g>
</g>
<g>
</g>
<g>
</g>
<g>
</g>
<g>
</g>
<g>
</g>
<g>
</g>
<g>
</g>
<g>
</g>
<g>
</g>
</svg>
