<svg height="1005pt" viewBox="0 -7 1005.0182 1005" width="1005pt" xmlns="http://www.w3.org/2000/svg"><path d="m914.945312 422.46875 44.121094-93.40625-93.808594-43.203125 9.367188-102.886719-102.957031-8.542968-26.316407-99.9375-99.621093 27.101562-58.929688-84.828125-84.34375 59.703125-84.34375-59.703125-58.933593 84.828125-99.621094-27.101562-26.230469 99.921874-102.957031 8.558594 9.367187 102.871094-93.808593 43.21875 44.121093 93.40625-73.386719 72.785156 73.304688 72.785156-44.125 93.40625 93.808594 43.203126-9.363282 102.886718 102.953126 8.542969 26.316406 99.9375 99.625-27.101563 58.929687 84.847657 84.34375-59.71875 84.34375 59.699219 58.933594-84.828126 99.667969 27.121094 26.234375-99.921875 102.953125-8.5625-9.363282-102.902343 93.808594-43.21875-44.125-93.40625 73.339844-72.769532zm-546.5-144.984375c46.257813 0 83.757813 37.5 83.757813 83.757813 0 46.257812-37.5 83.757812-83.757813 83.757812-46.257812 0-83.757812-37.5-83.757812-83.757812 0-46.257813 37.5-83.757813 83.757812-83.757813zm-19.96875 419.136719c-13.085937 13.089844-34.304687 13.089844-47.390624 0-13.085938-13.085938-13.085938-34.300782 0-47.386719l355.347656-355.351563c13.089844-13.085937 34.304687-13.085937 47.390625 0 13.089843 13.089844 13.089843 34.304688 0 47.390626zm287.992188 16.402344c-46.257812 0-83.757812-37.5-83.757812-83.757813s37.5-83.757813 83.757812-83.757813 83.757812 37.5 83.757812 83.757813-37.5 83.757813-83.757812 83.757813zm0 0" fill="#ffeb99"/><path d="m703.824219 293.882812c-13.078125-13.085937-34.292969-13.089843-47.378907-.007812-.003906.003906-.007812.003906-.011718.007812l-355.347656 355.351563c-13.085938 13.085937-13.085938 34.300781 0 47.386719 13.085937 13.089844 34.304687 13.089844 47.390624 0l355.347657-355.347656c13.089843-13.078126 13.09375-34.292969.011719-47.378907-.003907-.003906-.007813-.007812-.011719-.011719zm0 0" fill="#ff9811"/><path d="m720.226562 629.265625c0 46.257813-37.5 83.757813-83.757812 83.757813s-83.757812-37.5-83.757812-83.757813 37.5-83.757813 83.757812-83.757813 83.757812 37.5 83.757812 83.757813zm0 0" fill="#ff9811"/><path d="m452.203125 361.242188c0 46.257812-37.5 83.757812-83.757813 83.757812-46.257812 0-83.757812-37.5-83.757812-83.757812 0-46.257813 37.5-83.757813 83.757812-83.757813 46.257813 0 83.757813 37.5 83.757813 83.757813zm0 0" fill="#ff9811"/><g fill="#231f20"><path d="m1005 495.253906c-.023438-4.472656-1.832031-8.746094-5.027344-11.878906l-64.828125-64.457031 39.066407-82.703125c3.957031-8.363282.382812-18.347656-7.980469-22.304688-.054688-.023437-.109375-.050781-.160157-.074218l-83.089843-38.246094 8.292969-91.09375c.835937-9.210938-5.953126-17.359375-15.167969-18.195313-.039063-.003906-.082031-.007812-.125-.011719l-91.144531-7.574218-23.21875-88.480469c-2.347657-8.949219-11.503907-14.296875-20.453126-11.949219-.050781.011719-.101562.027344-.148437.039063l-88.265625 24.023437-52.195312-75.132812c-5.273438-7.601563-15.710938-9.492188-23.3125-4.21875-.046876.035156-.09375.066406-.140626.097656l-74.644531 52.851562-74.679687-52.851562c-7.546875-5.347656-18.003906-3.566406-23.351563 3.980469-.035156.046875-.066406.09375-.101562.140625l-52.164063 75.132812-88.261718-24.023437c-8.925782-2.429688-18.132813 2.835937-20.566407 11.761719-.011719.050781-.023437.097656-.039062.148437l-23.199219 88.480469-91.195312 7.558594c-9.222657.753906-16.082032 8.84375-15.324219 18.0625.003906.054687.007812.105468.011719.160156l8.378906 91.09375-83.121094 38.246094c-8.40625 3.867187-12.085938 13.8125-8.21875 22.21875.027344.054687.050781.105468.078125.160156l39.0625 82.699218-64.828125 64.460938c-6.558594 6.527344-6.585938 17.132812-.0625 23.691406.019531.019532.042969.042969.0625.0625l64.828125 64.460938-39.0625 82.703125c-3.957031 8.363281-.382813 18.347656 7.980469 22.304687.050781.023438.105468.050782.160156.074219l83.085938 38.242187-8.375 91.097657c-.835938 9.210937 5.957031 17.359375 15.171874 18.191406.054688.007813.113282.011719.171876.015625l91.144531 7.574219 23.21875 88.480469c2.347656 8.949218 11.503906 14.296874 20.453125 11.949218.050781-.011718.101562-.027344.148437-.039062l88.265625-24.023438 52.195313 75.132813c5.273437 7.601562 15.710937 9.492187 23.3125 4.21875.046875-.03125.09375-.066407.140625-.097657l74.679687-52.851562 74.675781 52.851562c7.546876 5.347657 18.003907 3.566407 23.355469-3.980468.03125-.046875.0625-.09375.097657-.140625l52.195312-75.132813 88.265625 24.023438c8.925781 2.429687 18.132813-2.835938 20.5625-11.761719.015625-.050781.027344-.097656.042969-.148437l23.199218-88.480469 91.144532-7.554688c9.21875-.757812 16.082031-8.847656 15.324218-18.066406-.003906-.054687-.007812-.109375-.015624-.160156l-8.375-91.09375 83.105468-38.246094c8.402344-3.867187 12.082032-13.8125 8.214844-22.21875-.023438-.050781-.050781-.105469-.074219-.160156l-39.03125-82.699219 64.910157-64.460938c3.164062-3.144531 4.945312-7.421874 4.945312-11.878906zm-101.863281 60.890625c-5.039063 5-6.382813 12.628907-3.351563 19.046875l36.851563 78.128906-78.480469 36.117188c-6.449219 2.964844-10.332031 9.679688-9.679688 16.75l7.839844 86.070312-86.121094 7.152344c-7.070312.589844-13 5.570313-14.808593 12.429688l-21.945313 83.589844-83.355468-22.683594c-6.859376-1.839844-14.136719.84375-18.15625 6.703125l-49.234376 70.859375-70.554687-49.9375c-5.800781-4.109375-13.5625-4.109375-19.367187 0l-70.539063 49.9375-49.300781-70.960938c-3.125-4.507812-8.265625-7.199218-13.75-7.203125-1.488282-.003906-2.972656.195313-4.40625.585938l-83.371094 22.683593-21.898438-83.558593c-1.804687-6.859375-7.734374-11.839844-14.808593-12.429688l-86.132813-7.152343 7.839844-86.066407c.648438-7.074219-3.230469-13.785156-9.683594-16.753906l-78.5-36.148437 36.855469-78.113282c3.03125-6.417968 1.6875-14.046875-3.351563-19.042968l-61.292968-60.894532 61.34375-60.890625c5.039062-5 6.382812-12.628906 3.351562-19.046875l-36.855468-78.128906 78.480468-36.117188c6.453125-2.964843 10.332032-9.679687 9.683594-16.75l-7.839844-86.070312 86.121094-7.152344c7.066406-.597656 12.992188-5.585937 14.789062-12.449218l21.945313-83.585938 83.355469 22.679688c6.84375 1.859374 14.117187-.789063 18.160156-6.617188l49.246094-70.925781 70.558594 49.9375c5.800781 4.109375 13.5625 4.109375 19.363281 0l70.542969-49.9375 49.296874 70.960937c4.042969 5.824219 11.316407 8.476563 18.160157 6.613282l83.371093-22.679688 21.894532 83.554688c1.804687 6.863281 7.738281 11.839843 14.808594 12.429687l86.136718 7.15625-7.839844 86.066406c-.648437 7.074219 3.230469 13.785157 9.683594 16.753907l78.460938 36.132812-36.851563 78.109375c-3.03125 6.417969-1.6875 14.050781 3.347657 19.046875l61.328124 60.910156zm0 0"/><path d="m715.667969 282.023438c-19.644531-19.582032-51.429688-19.582032-71.074219 0l-355.367188 355.367187c-19.5625 19.652344-19.5625 51.421875 0 71.074219 19.648438 19.578125 51.425782 19.578125 71.078126 0l355.378906-355.347656c19.574218-19.660157 19.566406-51.441407-.015625-71.09375zm-23.683594 47.390624-355.367187 355.347657c-6.328126 6.75-16.929688 7.089843-23.675782.761719-6.75-6.328126-7.089844-16.929688-.761718-23.675782.242187-.261718.492187-.511718.75-.753906l355.367187-355.347656c6.328125-6.75 16.929687-7.089844 23.679687-.761719 6.746094 6.328125 7.089844 16.929687.757813 23.675781-.242187.257813-.492187.511719-.75.753906zm0 0"/><path d="m636.46875 528.757812c-55.511719 0-100.511719 44.996094-100.511719 100.507813 0 55.507813 45 100.507813 100.511719 100.507813 55.507812 0 100.507812-45 100.507812-100.507813-.054687-55.488281-45.023437-100.453125-100.507812-100.507813zm0 167.511719c-37.007812 0-67.007812-29.996093-67.007812-67.003906s30-67.007813 67.007812-67.007813c37.003906 0 67.003906 30 67.003906 67.007813s-30 67.003906-67.003906 67.003906zm0 0"/><path d="m368.445312 461.75c55.507813 0 100.507813-45 100.507813-100.507812 0-55.507813-45-100.507813-100.507813-100.507813-55.511718 0-100.507812 44.996094-100.507812 100.507813.054688 55.484374 45.019531 100.453124 100.507812 100.507812zm0-167.515625c37.003907 0 67.003907 30 67.003907 67.007813 0 37.007812-30 67.003906-67.003907 67.003906-37.007812 0-67.007812-29.996094-67.007812-67.003906 0-37.007813 30-67.007813 67.007812-67.007813zm0 0"/></g></svg>