<?xml version="1.0" encoding="iso-8859-1"?>
<!-- Generator: Adobe Illustrator 19.0.0, SVG Export Plug-In . SVG Version: 6.00 Build 0)  -->
<svg version="1.1" id="Capa_1" xmlns="http://www.w3.org/2000/svg" xmlns:xlink="http://www.w3.org/1999/xlink" x="0px" y="0px"
	 viewBox="0 0 512.042 512.042" style="enable-background:new 0 0 512.042 512.042;" xml:space="preserve">
<path style="fill:#607D8B;" d="M264.957,495.573l-96-149.333c-2.944-4.581-8.867-6.209-13.739-3.776L62.205,388.97
	c-5.267,2.639-7.397,9.048-4.758,14.315c0.603,1.203,1.428,2.282,2.433,3.178l7.467,6.656c0.171,0.192,17.963,18.859,17.963,88.235
	c0,5.891,4.776,10.667,10.667,10.667h160.021c5.891-0.002,10.665-4.78,10.663-10.671
	C266.659,499.301,266.068,497.295,264.957,495.573z"/>
<path style="fill:#FFE082;" d="M401.064,175.53c-1.592-4.608-6.106-7.55-10.965-7.147l-20.523,1.707
	c-3.957-10.034-6.291-20.634-6.912-31.403c0-5.891-4.776-10.667-10.667-10.667c-62.699,0-116.139-42.667-117.333-53.333
	c0-5.891-4.776-10.667-10.667-10.667c-5.891,0-10.667,4.776-10.667,10.667c0.523,7.698-2.156,15.271-7.403,20.928
	c-12.584,8.731-27.881,12.659-43.115,11.072c-5.532-0.472-10.991,1.509-14.933,5.419c-8.955,17.627-12.39,37.544-9.856,57.152
	c-9.28-0.896-23.765-3.456-27.136,6.272c-2.881,8.761-4.308,17.935-4.224,27.157c0,29.76,13.163,52.352,30.827,53.333
	c19.328,64.213,65.941,106.667,118.507,106.667s99.179-42.453,118.507-106.667c17.664-0.96,30.827-23.467,30.827-53.333
	C405.4,193.463,403.959,184.289,401.064,175.53z"/>
<g>
	<path style="fill:#455A64;" d="M223.997,213.354h-21.333c-5.891,0-10.667-4.776-10.667-10.667c0-5.891,4.776-10.667,10.667-10.667
		h21.333c5.891,0,10.667,4.776,10.667,10.667C234.664,208.579,229.888,213.354,223.997,213.354z"/>
	<path style="fill:#455A64;" d="M309.33,213.354h-21.333c-5.891,0-10.667-4.776-10.667-10.667c0-5.891,4.776-10.667,10.667-10.667
		h21.333c5.891,0,10.667,4.776,10.667,10.667C319.997,208.579,315.221,213.354,309.33,213.354z"/>
	<path style="fill:#455A64;" d="M255.997,0.021c-82.436,0.094-149.239,66.898-149.333,149.333c0.105,10.778,1.407,21.51,3.883,32
		c1.08,4.884,5.409,8.361,10.411,8.363c8.96,0.15,17.902,0.863,26.773,2.133c5.822,0.898,11.27-3.094,12.168-8.916
		c0.121-0.784,0.154-1.578,0.099-2.369c-1.975-17.549-1.03-35.304,2.795-52.544c20.912,1.966,41.774-4.234,58.219-17.301
		c2.768-2.763,5.164-5.875,7.125-9.259c31.833,27.806,71.849,44.497,114.005,47.552c2.089,12.595,5.707,24.889,10.773,36.608
		c1.693,3.878,5.518,6.389,9.749,6.4h0.875l28.373-2.347c4.664-0.387,8.532-3.77,9.536-8.341
		c2.474-10.483,3.776-21.208,3.883-31.979C405.236,66.919,338.433,0.115,255.997,0.021z"/>
	<path style="fill:#455A64;" d="M81.768,397.397l-7.68-6.827c-3.259-2.903-7.957-3.528-11.861-1.579l-17.493,8.747
		c-13.843,6.961-23.951,19.625-27.669,34.667l-16.64,66.347c-1.438,5.713,2.028,11.51,7.741,12.947
		c0.817,0.206,1.656,0.314,2.499,0.322h85.333c5.891,0,10.667-4.776,10.667-10.667C106.664,421.61,84.264,399.573,81.768,397.397z"
		/>
</g>
<path style="fill:#607D8B;" d="M449.768,388.97l-93.013-46.507c-4.872-2.433-10.794-0.805-13.739,3.776l-96,149.333
	c-3.193,4.951-1.768,11.552,3.183,14.745c1.728,1.115,3.742,1.706,5.799,1.703h160c5.891,0,10.667-4.776,10.667-10.667
	c0-69.333,17.771-88.043,17.771-88.043l7.659-6.827c4.395-3.923,4.776-10.666,0.853-15.061c-0.896-1.004-1.975-1.829-3.178-2.433
	V388.97z"/>
<g>
	<path style="fill:#455A64;" d="M511.677,498.752l-16.64-66.325c-3.733-15.059-13.865-27.732-27.733-34.688l-17.493-8.747
		c-3.904-1.95-8.603-1.324-11.861,1.579l-7.616,6.784c-2.56,2.133-24.96,24.256-24.96,104c0,5.891,4.776,10.667,10.667,10.667
		h85.333c5.891,0.001,10.668-4.773,10.669-10.664c0-0.878-0.108-1.753-0.322-2.605L511.677,498.752z"/>
	<path style="fill:#455A64;" d="M255.997,309.354c-29.739,0-39.403-13.056-41.045-15.68c-3.068-5.029-1.477-11.593,3.552-14.661
		c4.764-2.906,10.964-1.648,14.219,2.885c0.555,0.576,6.165,6.123,23.275,6.123c18.005,0,23.275-6.123,23.317-6.187
		c3.051-4.846,9.452-6.301,14.298-3.25c0.07,0.044,0.14,0.089,0.209,0.135c4.948,3.281,6.369,9.913,3.2,14.933
		C295.4,296.298,285.736,309.354,255.997,309.354z"/>
</g>
<path style="fill:#F44336;" d="M294.226,364.714c-2.783-2.011-6.364-2.558-9.621-1.472l-28.608,9.536l-28.629-9.536
	c-5.589-1.862-11.629,1.16-13.491,6.749c-0.361,1.084-0.546,2.22-0.547,3.363v21.333c0.006,3.425,1.657,6.64,4.437,8.64
	c2.783,2.011,6.364,2.558,9.621,1.472l28.608-9.536l28.629,9.536c1.088,0.358,2.225,0.546,3.371,0.555
	c5.891,0,10.667-4.776,10.667-10.667v-21.333C298.658,369.929,297.007,366.715,294.226,364.714z"/>
<path style="fill:#FAFAFA;" d="M373.33,469.354h-42.667c-5.891,0-10.667-4.776-10.667-10.667c0-5.891,4.776-10.667,10.667-10.667
	h42.667c5.891,0,10.667,4.776,10.667,10.667C383.997,464.579,379.221,469.354,373.33,469.354z"/>
<path d="M255.997,362.688c-52.544,0-99.2-42.432-118.592-106.667c-17.6-1.067-30.741-23.616-30.741-53.333
	c-0.04-8.168,1.051-16.302,3.243-24.171c-2.088-9.582-3.175-19.356-3.243-29.163c0-82.475,66.859-149.333,149.333-149.333
	S405.33,66.88,405.33,149.354c-0.068,9.807-1.154,19.58-3.243,29.163c2.191,7.869,3.282,16.003,3.243,24.171
	c0,29.717-13.141,52.267-30.741,53.333C355.197,320.256,308.541,362.688,255.997,362.688z M144.914,232.917
	c1.277-0.016,2.545,0.216,3.733,0.683c3.219,1.162,5.697,3.782,6.677,7.061c14.933,60.16,55.381,100.693,100.672,100.693
	s85.739-40.533,100.672-100.693c1.457-5.708,7.265-9.154,12.973-7.697c1.07,0.273,2.091,0.711,3.027,1.297
	c3.627,1.152,11.349-10.837,11.349-31.488c0.065-6.882-0.965-13.73-3.051-20.288c-0.611-1.83-0.714-3.791-0.299-5.675
	c2.116-9.002,3.232-18.209,3.328-27.456c0-70.692-57.308-128-128-128s-128,57.308-128,128c0.11,9.219,1.233,18.397,3.349,27.371
	c0.415,1.884,0.312,3.845-0.299,5.675c-2.086,6.558-3.116,13.406-3.051,20.288c0,20.651,8,32,10.667,32
	C140.547,233.54,142.709,232.927,144.914,232.917z"/>
<path d="M362.664,192.021c-4.232-0.011-8.057-2.522-9.749-6.4c-5.07-11.742-8.695-24.056-10.795-36.672
	c-42.156-3.04-82.175-19.725-114.005-47.531c-1.946,3.4-4.343,6.522-7.125,9.28c-16.382,13.173-37.278,19.393-58.197,17.323
	c-3.803,17.251-4.747,35.009-2.795,52.565c0.214,3.21-1.032,6.346-3.392,8.533c-2.399,2.179-5.646,3.173-8.853,2.709
	c-8.878-1.27-17.827-1.983-26.795-2.133c-5.891,0-10.667-4.776-10.667-10.667c0-5.891,4.776-10.667,10.667-10.667
	c5.781,0,11.904,0.427,17.067,0.917c-2.513-19.612,0.936-39.527,9.899-57.152c3.968-3.926,9.457-5.914,15.019-5.44
	c15.195,1.596,30.457-2.318,43.008-11.029c5.243-5.675,7.914-13.262,7.381-20.971c0-5.891,4.776-10.667,10.667-10.667
	c5.891,0,10.667,4.776,10.667,10.667c1.237,10.667,54.72,53.333,117.333,53.333c5.891,0,10.667,4.776,10.667,10.667
	c0.656,10.772,3.018,21.371,6.997,31.403l20.523-1.685c5.891-0.483,11.058,3.901,11.541,9.792
	c0.483,5.891-3.901,11.058-9.792,11.541l0,0l-28.395,2.283H362.664z"/>
<path d="M223.997,213.354h-21.333c-5.891,0-10.667-4.776-10.667-10.667c0-5.891,4.776-10.667,10.667-10.667h21.333
	c5.891,0,10.667,4.776,10.667,10.667C234.664,208.579,229.888,213.354,223.997,213.354z"/>
<path d="M309.33,213.354h-21.333c-5.891,0-10.667-4.776-10.667-10.667c0-5.891,4.776-10.667,10.667-10.667h21.333
	c5.891,0,10.667,4.776,10.667,10.667C319.997,208.579,315.221,213.354,309.33,213.354z"/>
<path d="M501.33,512.021H10.664C4.773,512.019-0.002,507.242,0,501.351c0-0.869,0.107-1.735,0.317-2.578l16.576-66.283
	c3.759-15.119,13.959-27.829,27.904-34.773l110.443-55.232c4.872-2.433,10.794-0.805,13.739,3.776l87.019,135.36l87.04-135.381
	c2.944-4.581,8.867-6.209,13.739-3.776l110.421,55.253c13.935,6.952,24.125,19.66,27.883,34.773l16.576,66.283
	c1.426,5.716-2.052,11.505-7.768,12.931C503.051,511.913,502.192,512.019,501.33,512.021z M275.538,490.688h212.117l-13.248-53.035
	c-2.263-9.062-8.372-16.684-16.725-20.864l-101.888-50.944L275.538,490.688z M24.338,490.688h212.117L156.2,365.845L54.312,416.789
	c-8.361,4.176-14.479,11.798-16.747,20.864L24.338,490.688z"/>
<path d="M255.997,309.354c-29.739,0-39.403-13.056-41.045-15.68c-3.068-5.029-1.477-11.593,3.552-14.661
	c4.764-2.906,10.964-1.648,14.219,2.885c0.555,0.576,6.165,6.123,23.275,6.123c18.005,0,23.275-6.123,23.317-6.187
	c3.051-4.846,9.452-6.301,14.298-3.25c0.07,0.044,0.14,0.089,0.209,0.135c4.948,3.281,6.369,9.913,3.2,14.933
	C295.4,296.298,285.736,309.354,255.997,309.354z"/>
<path d="M95.997,512.021c-5.891,0-10.667-4.776-10.667-10.667c0-69.44-17.771-88.043-17.963-88.213
	c-4.08-4.086-4.24-10.654-0.363-14.933c3.843-4.236,10.369-4.615,14.677-0.853c2.56,2.219,24.981,24.128,24.981,104
	C106.664,507.245,101.888,512.021,95.997,512.021z"/>
<path d="M415.997,512.021c-5.891,0-10.667-4.776-10.667-10.667c0-79.872,22.421-101.781,24.981-104.021
	c4.542-3.752,11.265-3.111,15.017,1.431c3.524,4.266,3.201,10.519-0.745,14.399c-0.853,0.832-17.92,19.925-17.92,88.192
	C426.664,507.245,421.888,512.021,415.997,512.021z"/>
<path d="M287.997,405.354c-1.144-0.002-2.281-0.182-3.371-0.533l-28.629-9.557l-28.629,9.536c-3.257,1.086-6.838,0.539-9.621-1.472
	c-2.773-2.005-4.415-5.218-4.416-8.64v-21.333c-0.007-5.891,4.762-10.673,10.653-10.68c1.15-0.001,2.293,0.183,3.384,0.547
	l28.629,9.557l28.629-9.536c5.589-1.862,11.629,1.16,13.491,6.749c0.361,1.084,0.546,2.22,0.547,3.363v21.333
	C298.664,400.579,293.888,405.354,287.997,405.354z"/>
<path d="M373.33,469.354h-42.667c-5.891,0-10.667-4.776-10.667-10.667c0-5.891,4.776-10.667,10.667-10.667h42.667
	c5.891,0,10.667,4.776,10.667,10.667C383.997,464.579,379.221,469.354,373.33,469.354z"/>
<g>
</g>
<g>
</g>
<g>
</g>
<g>
</g>
<g>
</g>
<g>
</g>
<g>
</g>
<g>
</g>
<g>
</g>
<g>
</g>
<g>
</g>
<g>
</g>
<g>
</g>
<g>
</g>
<g>
</g>
</svg>
