<?xml version="1.0" encoding="iso-8859-1"?>
<!-- Generator: Adobe Illustrator 19.0.0, SVG Export Plug-In . SVG Version: 6.00 Build 0)  -->
<svg version="1.1" id="Capa_1" xmlns="http://www.w3.org/2000/svg" xmlns:xlink="http://www.w3.org/1999/xlink" x="0px" y="0px"
	 viewBox="0 0 512 512" style="enable-background:new 0 0 512 512;" xml:space="preserve">
<path style="fill:#FFD36C;" d="M135.982,187.463l176.511-79.766C309.35,53.295,264.096,10,208.919,10
	C151.712,10,105.17,56.541,105.17,113.748C105.171,142.549,116.967,168.647,135.982,187.463z"/>
<path style="fill:#FCB651;" d="M167.844,173.065l112.738-50.946c0.317-2.746,0.48-5.539,0.48-8.37
	c0-39.843-32.3-72.143-72.143-72.143s-72.143,32.299-72.143,72.143C136.776,138.33,149.07,160.039,167.844,173.065z"/>
<polygon style="fill:#26CFAD;" points="436.263,213.776 375.466,79.24 77.756,213.776 "/>
<path style="fill:#00B192;" d="M375.466,79.24l27.213,60.218c-33.208,15.007-72.424,0.202-87.43-33.005L375.466,79.24z"/>
<path style="fill:#EAECF0;" d="M44.85,213.776v251.895C44.85,485.735,61.115,502,81.18,502h375.628
	c5.712,0,10.342-4.63,10.342-10.342V228.643c0-8.211-6.656-14.867-14.867-14.867H44.85z"/>
<path style="fill:#FFD36C;" d="M321.161,213.776c-15.863-33.985-56.298-49.035-90.57-33.548
	c-15.556,7.03-27.229,19.171-33.935,33.548H321.161z"/>
<path style="fill:#BBB8C7;" d="M135.982,187.463c-6.806-6.735-12.687-14.404-17.434-22.795H93.963
	c-27.124,0-49.113,21.986-49.113,49.107h32.906L135.982,187.463z"/>
<polyline style="fill:#FFD36C;" points="427.15,322.164 427.15,253.776 84.85,253.776 84.85,462 427.15,462 427.15,399.917 "/>
<path d="M374.14,438c-0.66,0-1.309-0.07-1.96-0.2c-0.64-0.13-1.27-0.32-1.87-0.57s-1.18-0.56-1.729-0.92
	c-0.54-0.359-1.061-0.78-1.521-1.24c-1.859-1.859-2.92-4.439-2.92-7.069c0-0.65,0.061-1.31,0.191-1.95s0.319-1.271,0.569-1.88
	c0.25-0.601,0.561-1.18,0.92-1.72c0.36-0.551,0.78-1.061,1.24-1.521s0.98-0.88,1.521-1.24c0.55-0.37,1.13-0.67,1.729-0.92
	c0.601-0.25,1.23-0.45,1.87-0.569c1.29-0.261,2.62-0.261,3.91,0c0.64,0.119,1.27,0.319,1.87,0.569s1.18,0.55,1.73,0.92
	c0.54,0.36,1.06,0.78,1.52,1.24s0.88,0.97,1.24,1.521c0.359,0.54,0.67,1.119,0.92,1.72c0.25,0.609,0.44,1.24,0.569,1.88
	c0.13,0.64,0.19,1.3,0.19,1.95c0,2.63-1.061,5.21-2.92,7.069c-0.46,0.46-0.98,0.881-1.52,1.24c-0.55,0.36-1.13,0.67-1.73,0.92
	c-0.601,0.25-1.23,0.44-1.87,0.57C375.44,437.93,374.79,438,374.14,438z"/>
<path d="M334.252,438H137.864c-5.523,0-10-4.478-10-10s4.477-10,10-10h196.388c5.522,0,10,4.478,10,10S339.773,438,334.252,438z"/>
<path style="fill:#FEDBAB;" d="M467.15,399.917h-96.717c-21.471,0-38.876-17.406-38.876-38.876l0,0
	c0-21.471,17.406-38.876,38.876-38.876h96.717V399.917z"/>
<path d="M452.282,203.775h-9.565l-30.918-68.416c-0.003-0.006-0.005-0.013-0.008-0.019l-27.213-60.218
	c-2.273-5.033-8.199-7.271-13.23-4.994l-50.574,22.854C310.965,39.831,264.312,0,208.919,0C146.198,0,95.171,51.027,95.171,113.748
	c0,14.221,2.597,28.038,7.568,40.921h-8.776c-32.595,0-59.113,26.515-59.113,59.107v251.895C34.85,491.217,55.633,512,81.18,512
	h375.628c11.217,0,20.343-9.126,20.343-20.343V228.644C477.15,214.932,465.993,203.775,452.282,203.775z M327.233,203.775
	c-19.868-34.744-63.674-49.42-100.76-32.66c-15.142,6.843-27.691,18.309-35.89,32.66h-66.415l186.682-84.362
	c14.098,22.712,38.919,35.905,64.728,35.905c7.272,0,14.624-1.048,21.836-3.226l23.356,51.683H327.233z M302.708,203.775H215.08
	c5.423-6.091,12.096-11.03,19.629-14.436C258.521,178.578,286.053,185.194,302.708,203.775z M146.776,113.748
	c0-34.266,27.877-62.143,62.143-62.143s62.144,27.877,62.144,62.143c0,0.569-0.008,1.139-0.023,1.709l-101.89,46.044
	C155.049,149.74,146.776,132.268,146.776,113.748z M389.079,133.65c-22.59,5.666-46.571-3.387-59.787-22.569l41.178-18.609
	L389.079,133.65z M208.919,20c47.34,0,86.935,35.294,92.958,81.521l-11.128,5.028c-3.658-41.936-38.962-74.944-81.831-74.944
	c-45.294,0-82.143,36.849-82.143,82.143c0,21.285,8.265,41.522,22.671,56.657l-11.079,5.007c-4.229-4.832-7.956-10.08-11.117-15.667
	c-0.118-0.208-0.242-0.41-0.373-0.607c-7.645-13.738-11.707-29.25-11.707-45.39C115.171,62.056,157.227,20,208.919,20z
	 M93.963,174.669h18.892c2.035,3.19,4.238,6.29,6.603,9.288l-43.856,19.819H56.146C60.575,187.04,75.852,174.669,93.963,174.669z
	 M456.808,492H81.18c-14.519,0-26.33-11.811-26.33-26.329V223.775h397.433c2.685,0,4.868,2.184,4.868,4.868v83.52h-20v-58.389
	c0-5.523-4.477-10-10-10H84.85c-5.522,0-10,4.477-10,10V462c0,5.522,4.478,10,10,10h342.3c5.523,0,10-4.478,10-10v-52.083h20v81.74
	C457.15,491.847,456.997,492,456.808,492z M457.15,389.917h-86.718c-15.922,0-28.876-12.954-28.876-28.876
	c0-15.923,12.954-28.877,28.876-28.877h86.718L457.15,389.917L457.15,389.917z M417.15,312.164h-46.718
	c-26.95,0-48.876,21.926-48.876,48.877c0,26.95,21.926,48.876,48.876,48.876h46.718V452H94.85V263.775h322.3V312.164z"/>
<g>
</g>
<g>
</g>
<g>
</g>
<g>
</g>
<g>
</g>
<g>
</g>
<g>
</g>
<g>
</g>
<g>
</g>
<g>
</g>
<g>
</g>
<g>
</g>
<g>
</g>
<g>
</g>
<g>
</g>
</svg>
