<svg xmlns="http://www.w3.org/2000/svg" width="37.326" height="41.689" viewBox="0 0 37.326 41.689">
  <path id="Path_14836" data-name="Path 14836" d="M.634,4.984H8.323l-.01-.132V1.4A1.632,1.632,0,0,1,10.1,0a1.637,1.637,0,0,1,1.785,1.4V4.852l-.01.132H24.965l-.01-.132V1.4A1.631,1.631,0,0,1,26.737,0a1.637,1.637,0,0,1,1.785,1.4V4.852l-.01.132h8.18a.636.636,0,0,1,.634.634v6.6a.636.636,0,0,1-.634.634H.634A.641.641,0,0,1,0,12.218v-6.6a.633.633,0,0,1,.634-.631ZM.159,14.315H37.17a.156.156,0,0,1,.156.156h0V41.533a.158.158,0,0,1-.156.156H.159A.161.161,0,0,1,0,41.533V14.474a.159.159,0,0,1,.159-.159ZM33,17.9H28.355a.493.493,0,0,0-.509.475V22.7a.493.493,0,0,0,.509.475h4.652a.5.5,0,0,0,.512-.475V18.376A.5.5,0,0,0,33,17.9ZM4.153,25.424H8.8a.5.5,0,0,1,.512.475v4.323A.5.5,0,0,1,8.8,30.7H4.312a.493.493,0,0,1-.509-.475V25.742a.5.5,0,0,1,.509-.475l-.159.156Zm0,7.526H8.8a.5.5,0,0,1,.512.475v4.323a.5.5,0,0,1-.512.475H4.309a.493.493,0,0,1-.509-.475V33.424a.5.5,0,0,1,.509-.475Zm0-15.048H8.8a.5.5,0,0,1,.512.475V22.7a.5.5,0,0,1-.512.475H4.309A.493.493,0,0,1,3.8,22.7V18.376a.5.5,0,0,1,.509-.475Zm8.068,0h4.652a.493.493,0,0,1,.509.475V22.7a.5.5,0,0,1-.509.475H12.221a.5.5,0,0,1-.512-.475V18.376a.5.5,0,0,1,.512-.475Zm0,7.522h4.652a.493.493,0,0,1,.509.475v4.323a.5.5,0,0,1-.509.475H12.221a.5.5,0,0,1-.512-.475V25.742a.5.5,0,0,1,.512-.475v.156Zm0,7.526h4.652a.493.493,0,0,1,.509.475v4.323a.5.5,0,0,1-.509.475H12.221a.5.5,0,0,1-.512-.475V33.424a.5.5,0,0,1,.512-.475ZM20.287,17.9h4.652a.5.5,0,0,1,.512.475V22.7a.5.5,0,0,1-.512.475H20.287a.5.5,0,0,1-.512-.475V18.376a.5.5,0,0,1,.512-.475Zm0,7.522h4.652a.5.5,0,0,1,.512.475v4.323a.5.5,0,0,1-.512.475H20.287a.5.5,0,0,1-.512-.475V25.742a.5.5,0,0,1,.512-.475v.156Zm12.717,0H28.355a.493.493,0,0,0-.509.475v4.323a.493.493,0,0,0,.509.475h4.652a.5.5,0,0,0,.512-.475V25.739a.5.5,0,0,0-.512-.475l0,.159Zm0,7.526H28.355a.493.493,0,0,0-.509.475v4.323a.493.493,0,0,0,.509.475h4.652a.5.5,0,0,0,.512-.475V33.265a.5.5,0,0,0-.512-.475l0,.159Zm-12.717,0h4.652a.5.5,0,0,1,.512.475v4.323a.5.5,0,0,1-.512.475H20.287a.5.5,0,0,1-.512-.475V33.424a.5.5,0,0,1,.512-.475ZM2.378,16.188H35.263a.323.323,0,0,1,.319.319V39.5a.328.328,0,0,1-.319.319H2.063a.323.323,0,0,1-.319-.319V16.822a.636.636,0,0,1,.634-.634ZM26.737,9.975a1.637,1.637,0,0,0,1.785-1.4V5.127l-.01-.139H24.965l-.01.139V8.574a1.631,1.631,0,0,0,1.781,1.4Zm-16.639,0a1.637,1.637,0,0,0,1.785-1.4V5.127l-.01-.139H8.323l-.01.139V8.574a1.632,1.632,0,0,0,1.785,1.4Z" fill="#5855bf" fill-rule="evenodd"/>
</svg>
