<svg xmlns="http://www.w3.org/2000/svg" width="43.164" height="43.163" viewBox="0 0 43.164 43.163">
  <path id="clock-timing-icon" d="M21.571,0A21.581,21.581,0,1,1,6.318,6.32,21.581,21.581,0,0,1,21.571,0Zm1.11,19.376a2.475,2.475,0,0,1,1.022.962h3.476A.952.952,0,0,1,27.3,19.4a.941.941,0,0,1,1.313-.169l2.068,1.6a.927.927,0,0,1,.351.73h0v.021h0a.931.931,0,0,1-.351.734l-2.068,1.594a.934.934,0,0,1-1.433-1.081H23.7a2.458,2.458,0,1,1-3.511-3.283l.028-4.754a.934.934,0,0,1-1.089-1.443l1.64-2.03a.938.938,0,0,1,.7-.351h.021a.931.931,0,0,1,.772.379l1.548,2.107a.934.934,0,0,1-1.1,1.422ZM30.406,34.8a1.053,1.053,0,0,1-1.8,1.053l-.776-1.341a1.053,1.053,0,0,1,1.8-1.053l.776,1.345ZM12.733,8.339a1.053,1.053,0,0,1,1.8-1.032l.776,1.341a1.053,1.053,0,1,1-1.8,1.032Zm23.1,20.274a1.053,1.053,0,1,1-1.032,1.8l-1.341-.776a1.053,1.053,0,0,1,1.032-1.8l1.341.776ZM7.3,14.533a1.053,1.053,0,1,1,1.053-1.8l1.345.776a1.053,1.053,0,0,1-1.053,1.8Zm30.148,6a1.053,1.053,0,0,1,0,2.082H35.9a1.053,1.053,0,0,1,0-2.082ZM5.693,22.616a1.053,1.053,0,1,1,0-2.082H7.245a1.053,1.053,0,0,1,0,2.082Zm29.112-9.881a1.053,1.053,0,0,1,1.032,1.8l-1.341.776a1.053,1.053,0,0,1-1.032-1.8ZM8.337,30.412a1.053,1.053,0,1,1-1.032-1.8l1.341-.776a1.053,1.053,0,0,1,1.032,1.8Zm20.274-23.1a1.053,1.053,0,0,1,1.8,1.032l-.776,1.341a1.053,1.053,0,1,1-1.8-1.032l.776-1.341ZM14.531,35.844a1.053,1.053,0,0,1-1.8-1.053l.776-1.345a1.053,1.053,0,0,1,1.8,1.053l-.776,1.341Zm6-30.148a1.053,1.053,0,0,1,2.082,0V7.247a1.053,1.053,0,0,1-2.082,0Zm2.082,31.756a1.053,1.053,0,1,1-2.082,0V35.9a1.053,1.053,0,0,1,2.082,0Zm12.5-29.414a19.14,19.14,0,1,0,5.618,13.536A19.14,19.14,0,0,0,35.111,8.037Z" transform="translate(0.004)" fill="#5855bf"/>
</svg>
