<svg fill="#137000" version="1.1" id="Capa_1" xmlns="http://www.w3.org/2000/svg" xmlns:xlink="http://www.w3.org/1999/xlink" width="156px" height="156px" viewBox="-3.9 -3.9 56.55 56.55" xml:space="preserve" stroke="#137000" stroke-width="1.6086839999999998"><g id="SVGRepo_bgCarrier" stroke-width="0"></g><g id="SVGRepo_tracerCarrier" stroke-linecap="round" stroke-linejoin="round" stroke="#CCCCCC" stroke-width="0.29248799999999997"> <g> <path d="M34.849,2.37c-0.047-0.052-0.084-0.092-0.1-0.106l-0.041,0.042C31.567,0.83,28.065,0,24.374,0 c-0.543,0-1.078,0.024-1.611,0.059l-0.002-0.001v0.001c-12.69,0.835-22.76,11.418-22.76,24.315 c0,13.44,10.934,24.374,24.373,24.374c13.439,0,24.373-10.934,24.373-24.374C48.747,14.682,43.062,6.295,34.849,2.37z M44.671,33.773c-0.559,0.473-2.234,1.735-5.244,2.938c0.563-2.031,1.039-4.391,1.314-7.145c2.748-0.813,4.65-1.703,5.82-2.355 C46.267,29.527,45.618,31.732,44.671,33.773z M2.218,27.46c1.293,0.638,3.219,1.438,5.854,2.173 c0.273,2.689,0.746,5.016,1.311,7.021c-3.098-1.232-4.814-2.514-5.33-2.939C3.151,31.764,2.524,29.663,2.218,27.46z M3.788,15.733 c0.031-0.03,1.715-1.602,5.396-3.084c-0.553,2.158-0.984,4.706-1.207,7.626c-2.738,0.793-4.68,1.654-5.896,2.288 c0.193-2.416,0.768-4.727,1.672-6.867L3.788,15.733z M46.661,22.467c-1.215-0.657-3.119-1.517-5.816-2.298 c-0.207-2.848-0.617-5.325-1.145-7.439c3.434,1.389,5.113,2.816,5.303,2.985C45.89,17.822,46.46,20.093,46.661,22.467z M24.265,46.562c-0.305-0.432-1.404-2.136-2.482-5.381c0.877,0.043,1.785,0.065,2.73,0.065c0.734,0,1.427-0.024,2.121-0.052 C25.698,44.094,24.733,45.826,24.265,46.562z M24.513,39.248c-1.176,0-2.275-0.049-3.342-0.117 c-0.559-2.07-1.057-4.602-1.379-7.642c1.457,0.089,2.979,0.149,4.617,0.149c1.461,0,2.838-0.041,4.146-0.113 c-0.31,3.029-0.789,5.57-1.334,7.651C26.353,39.223,25.452,39.248,24.513,39.248z M24.409,29.639c-1.709,0-3.295-0.065-4.803-0.166 c-0.117-1.603-0.188-3.317-0.188-5.175c0-1.393,0.049-2.693,0.115-3.951c1.617-0.117,3.338-0.189,5.193-0.189 c1.43,0,2.755,0.051,4.033,0.122c0.082,1.373,0.139,2.8,0.139,4.337c0,1.748-0.065,3.361-0.172,4.883 C27.366,29.582,25.946,29.639,24.409,29.639z M2.015,24.9c0.719-0.438,2.633-1.477,5.844-2.472C7.836,23.075,7.81,23.719,7.81,24.4 c0,1.074,0.037,2.093,0.094,3.08c-3.035-0.909-4.963-1.869-5.885-2.396C2.017,25.023,2.015,24.962,2.015,24.9z M9.81,24.4 c0-0.877,0.023-1.722,0.063-2.541c2.109-0.541,4.652-1.019,7.646-1.332c-0.059,1.205-0.1,2.447-0.1,3.77 c0,1.786,0.061,3.449,0.166,5.009c-2.967-0.291-5.514-0.744-7.631-1.265C9.87,26.887,9.81,25.688,9.81,24.4z M30.774,20.418 c3.242,0.282,5.957,0.767,8.17,1.328c0.035,0.783,0.059,1.586,0.059,2.427c0,1.353-0.062,2.608-0.15,3.818 c-2.188,0.567-4.877,1.063-8.1,1.358c0.094-1.479,0.146-3.053,0.146-4.732C30.899,23.134,30.849,21.753,30.774,20.418z M40.958,22.316c3.104,0.967,4.939,1.989,5.705,2.477c-0.449,0.316-2.273,1.488-5.76,2.604c0.061-1.032,0.1-2.098,0.1-3.225 C41.003,23.53,40.978,22.927,40.958,22.316z M38.8,19.633c-2.262-0.534-4.967-0.987-8.16-1.245 c-0.264-3.134-0.709-5.813-1.231-8.084c3.18,0.32,5.825,0.915,7.989,1.598C38.015,14.021,38.532,16.582,38.8,19.633z M28.89,8.256 c-0.793-2.84-1.666-4.864-2.322-6.147c2.492,0.244,4.863,0.902,7.052,1.898c0.557,0.687,1.834,2.474,3.01,5.57 C34.452,8.987,31.88,8.509,28.89,8.256z M24.222,2.004c0.488,0.819,1.537,2.815,2.523,6.109c-0.797-0.035-1.611-0.06-2.461-0.06 c-0.975,0-1.91,0.025-2.811,0.07c0.896-3.098,1.871-5.106,2.432-6.112C24.011,2.01,24.116,2.004,24.222,2.004z M24.284,10.054 c1.053,0,2.051,0.037,3.016,0.092c0.551,2.231,1.025,4.936,1.312,8.112c-1.229-0.063-2.52-0.1-3.884-0.1 c-1.803,0-3.475,0.069-5.061,0.176c0.268-3.189,0.73-5.905,1.268-8.163C22.003,10.103,23.104,10.054,24.284,10.054z M17.638,18.502 c-2.934,0.287-5.475,0.726-7.613,1.237c0.287-3.128,0.84-5.758,1.492-7.924c2.002-0.621,4.436-1.156,7.314-1.469 C18.317,12.649,17.882,15.343,17.638,18.502z M10.153,30.157c2.15,0.493,4.676,0.914,7.596,1.18 c0.293,2.976,0.754,5.498,1.283,7.612c-2.859-0.312-5.291-0.846-7.301-1.465C11.071,35.479,10.499,33.04,10.153,30.157z M19.608,41.021c0.816,2.664,1.697,4.488,2.326,5.59c-2.219-0.241-4.342-0.807-6.316-1.649c-0.395-0.45-1.713-2.096-3.002-5.126 C14.616,40.355,16.946,40.777,19.608,41.021z M28.794,41.066c2.848-0.227,5.328-0.653,7.428-1.198 c-1.244,2.991-2.502,4.59-2.828,4.974c-2.131,0.943-4.432,1.565-6.848,1.799C27.183,45.479,28.021,43.657,28.794,41.066z M29.347,39.021c0.519-2.127,0.967-4.66,1.246-7.638c3.154-0.268,5.824-0.726,8.059-1.261c-0.35,2.932-0.924,5.396-1.579,7.416 C34.97,38.182,32.411,38.73,29.347,39.021z M43.028,12.041c-1.064-0.564-2.398-1.163-4.014-1.727 c-0.543-1.669-1.136-3.054-1.705-4.179C39.56,7.736,41.501,9.738,43.028,12.041z M19.337,8.282 c-2.686,0.247-5.023,0.676-7.021,1.205c1.281-3.298,2.641-5.095,3.051-5.587c1.936-0.854,4.014-1.44,6.188-1.715 C20.897,3.529,20.079,5.542,19.337,8.282z M11.679,5.964c-0.586,1.131-1.205,2.544-1.777,4.262c-1.693,0.583-3.078,1.21-4.174,1.8 C7.31,9.647,9.331,7.588,11.679,5.964z M6.243,37.46c1.063,0.542,2.367,1.106,3.924,1.634c0.553,1.52,1.139,2.787,1.695,3.82 C9.685,41.439,7.784,39.589,6.243,37.46z M37.101,42.76c0.517-0.988,1.056-2.191,1.568-3.631c1.477-0.503,2.732-1.042,3.76-1.562 C40.954,39.579,39.153,41.336,37.101,42.76z"></path> </g> </g><g id="SVGRepo_iconCarrier"> <g> <path d="M34.849,2.37c-0.047-0.052-0.084-0.092-0.1-0.106l-0.041,0.042C31.567,0.83,28.065,0,24.374,0 c-0.543,0-1.078,0.024-1.611,0.059l-0.002-0.001v0.001c-12.69,0.835-22.76,11.418-22.76,24.315 c0,13.44,10.934,24.374,24.373,24.374c13.439,0,24.373-10.934,24.373-24.374C48.747,14.682,43.062,6.295,34.849,2.37z M44.671,33.773c-0.559,0.473-2.234,1.735-5.244,2.938c0.563-2.031,1.039-4.391,1.314-7.145c2.748-0.813,4.65-1.703,5.82-2.355 C46.267,29.527,45.618,31.732,44.671,33.773z M2.218,27.46c1.293,0.638,3.219,1.438,5.854,2.173 c0.273,2.689,0.746,5.016,1.311,7.021c-3.098-1.232-4.814-2.514-5.33-2.939C3.151,31.764,2.524,29.663,2.218,27.46z M3.788,15.733 c0.031-0.03,1.715-1.602,5.396-3.084c-0.553,2.158-0.984,4.706-1.207,7.626c-2.738,0.793-4.68,1.654-5.896,2.288 c0.193-2.416,0.768-4.727,1.672-6.867L3.788,15.733z M46.661,22.467c-1.215-0.657-3.119-1.517-5.816-2.298 c-0.207-2.848-0.617-5.325-1.145-7.439c3.434,1.389,5.113,2.816,5.303,2.985C45.89,17.822,46.46,20.093,46.661,22.467z M24.265,46.562c-0.305-0.432-1.404-2.136-2.482-5.381c0.877,0.043,1.785,0.065,2.73,0.065c0.734,0,1.427-0.024,2.121-0.052 C25.698,44.094,24.733,45.826,24.265,46.562z M24.513,39.248c-1.176,0-2.275-0.049-3.342-0.117 c-0.559-2.07-1.057-4.602-1.379-7.642c1.457,0.089,2.979,0.149,4.617,0.149c1.461,0,2.838-0.041,4.146-0.113 c-0.31,3.029-0.789,5.57-1.334,7.651C26.353,39.223,25.452,39.248,24.513,39.248z M24.409,29.639c-1.709,0-3.295-0.065-4.803-0.166 c-0.117-1.603-0.188-3.317-0.188-5.175c0-1.393,0.049-2.693,0.115-3.951c1.617-0.117,3.338-0.189,5.193-0.189 c1.43,0,2.755,0.051,4.033,0.122c0.082,1.373,0.139,2.8,0.139,4.337c0,1.748-0.065,3.361-0.172,4.883 C27.366,29.582,25.946,29.639,24.409,29.639z M2.015,24.9c0.719-0.438,2.633-1.477,5.844-2.472C7.836,23.075,7.81,23.719,7.81,24.4 c0,1.074,0.037,2.093,0.094,3.08c-3.035-0.909-4.963-1.869-5.885-2.396C2.017,25.023,2.015,24.962,2.015,24.9z M9.81,24.4 c0-0.877,0.023-1.722,0.063-2.541c2.109-0.541,4.652-1.019,7.646-1.332c-0.059,1.205-0.1,2.447-0.1,3.77 c0,1.786,0.061,3.449,0.166,5.009c-2.967-0.291-5.514-0.744-7.631-1.265C9.87,26.887,9.81,25.688,9.81,24.4z M30.774,20.418 c3.242,0.282,5.957,0.767,8.17,1.328c0.035,0.783,0.059,1.586,0.059,2.427c0,1.353-0.062,2.608-0.15,3.818 c-2.188,0.567-4.877,1.063-8.1,1.358c0.094-1.479,0.146-3.053,0.146-4.732C30.899,23.134,30.849,21.753,30.774,20.418z M40.958,22.316c3.104,0.967,4.939,1.989,5.705,2.477c-0.449,0.316-2.273,1.488-5.76,2.604c0.061-1.032,0.1-2.098,0.1-3.225 C41.003,23.53,40.978,22.927,40.958,22.316z M38.8,19.633c-2.262-0.534-4.967-0.987-8.16-1.245 c-0.264-3.134-0.709-5.813-1.231-8.084c3.18,0.32,5.825,0.915,7.989,1.598C38.015,14.021,38.532,16.582,38.8,19.633z M28.89,8.256 c-0.793-2.84-1.666-4.864-2.322-6.147c2.492,0.244,4.863,0.902,7.052,1.898c0.557,0.687,1.834,2.474,3.01,5.57 C34.452,8.987,31.88,8.509,28.89,8.256z M24.222,2.004c0.488,0.819,1.537,2.815,2.523,6.109c-0.797-0.035-1.611-0.06-2.461-0.06 c-0.975,0-1.91,0.025-2.811,0.07c0.896-3.098,1.871-5.106,2.432-6.112C24.011,2.01,24.116,2.004,24.222,2.004z M24.284,10.054 c1.053,0,2.051,0.037,3.016,0.092c0.551,2.231,1.025,4.936,1.312,8.112c-1.229-0.063-2.52-0.1-3.884-0.1 c-1.803,0-3.475,0.069-5.061,0.176c0.268-3.189,0.73-5.905,1.268-8.163C22.003,10.103,23.104,10.054,24.284,10.054z M17.638,18.502 c-2.934,0.287-5.475,0.726-7.613,1.237c0.287-3.128,0.84-5.758,1.492-7.924c2.002-0.621,4.436-1.156,7.314-1.469 C18.317,12.649,17.882,15.343,17.638,18.502z M10.153,30.157c2.15,0.493,4.676,0.914,7.596,1.18 c0.293,2.976,0.754,5.498,1.283,7.612c-2.859-0.312-5.291-0.846-7.301-1.465C11.071,35.479,10.499,33.04,10.153,30.157z M19.608,41.021c0.816,2.664,1.697,4.488,2.326,5.59c-2.219-0.241-4.342-0.807-6.316-1.649c-0.395-0.45-1.713-2.096-3.002-5.126 C14.616,40.355,16.946,40.777,19.608,41.021z M28.794,41.066c2.848-0.227,5.328-0.653,7.428-1.198 c-1.244,2.991-2.502,4.59-2.828,4.974c-2.131,0.943-4.432,1.565-6.848,1.799C27.183,45.479,28.021,43.657,28.794,41.066z M29.347,39.021c0.519-2.127,0.967-4.66,1.246-7.638c3.154-0.268,5.824-0.726,8.059-1.261c-0.35,2.932-0.924,5.396-1.579,7.416 C34.97,38.182,32.411,38.73,29.347,39.021z M43.028,12.041c-1.064-0.564-2.398-1.163-4.014-1.727 c-0.543-1.669-1.136-3.054-1.705-4.179C39.56,7.736,41.501,9.738,43.028,12.041z M19.337,8.282 c-2.686,0.247-5.023,0.676-7.021,1.205c1.281-3.298,2.641-5.095,3.051-5.587c1.936-0.854,4.014-1.44,6.188-1.715 C20.897,3.529,20.079,5.542,19.337,8.282z M11.679,5.964c-0.586,1.131-1.205,2.544-1.777,4.262c-1.693,0.583-3.078,1.21-4.174,1.8 C7.31,9.647,9.331,7.588,11.679,5.964z M6.243,37.46c1.063,0.542,2.367,1.106,3.924,1.634c0.553,1.52,1.139,2.787,1.695,3.82 C9.685,41.439,7.784,39.589,6.243,37.46z M37.101,42.76c0.517-0.988,1.056-2.191,1.568-3.631c1.477-0.503,2.732-1.042,3.76-1.562 C40.954,39.579,39.153,41.336,37.101,42.76z"></path> </g> </g></svg>