<svg id="Group_13759" data-name="Group 13759" xmlns="http://www.w3.org/2000/svg" width="90" height="36.839" viewBox="0 0 90 36.839">
  <path id="Path_12821" data-name="Path 12821" d="M-394.176,244.853q-7.014,0-14.027,0c-1.736,0-1.736-.008-1.732-1.708,0-.32.007-.639.008-.959,0-.551.3-.791.824-.8.36,0,.719-.011,1.079-.011h24.578a14.281,14.281,0,0,0,1.438-.027,1.51,1.51,0,0,0,1.554-1.73c-.012-1.111-.383-1.433-1.692-1.433q-12.289,0-24.578,0c-.759,0-1.518-.011-2.278-.012-.641,0-.939-.3-.936-.957.015-3.016-.324-2.794,2.616-2.795q12.529,0,25.057-.005c1.467,0,1.706-.254,1.655-1.652-.043-1.183-.234-1.353-1.855-1.356q-12.169-.018-24.338-.007h-.6c-2.65,0-2.653-.032-2.547-2.691a1.17,1.17,0,0,1,1.118-1.286,11.213,11.213,0,0,1,1.549-.117c6.954-.007,13.907-.019,20.861.006,1.955.007,3.91.1,5.863.2a4.034,4.034,0,0,1,4.115,4.234,5.493,5.493,0,0,1-.881,3.884c-.159.2,0,.812.2,1.109.934,1.4,1.026,5.146.118,6.55a3.207,3.207,0,0,1-2.906,1.565C-384.664,244.84-389.42,244.852-394.176,244.853Z" transform="translate(409.982 -208.057)" fill="#564fbd"/>
  <path id="Path_12822" data-name="Path 12822" d="M-376.437,152.076a4.747,4.747,0,0,0-4.651-4.92c-.595-.05-1.195-.086-1.792-.079q-11.259.094-22.515.2a4.323,4.323,0,0,0-4.539,4.579c0,2.478.165,4.968-.029,7.429-.24,3.082,2.768,5.34,5.289,5.246,3.829-.146,7.669-.038,11.5-.041s7.671,0,11.507,0a5.088,5.088,0,0,0,5.227-5.1Q-376.37,155.732-376.437,152.076Zm-5.81,8.48c-2.632.017-5.261.014-7.892.01q-1.623,0-3.248,0-1.569,0-3.138,0c-2.507,0-5.016,0-7.525-.007-1.7-.007-2.147-.451-2.169-2.118q-.036-2.7,0-5.393a2.168,2.168,0,0,1,2.442-2.437q10.543-.018,21.086,0a2.03,2.03,0,0,1,2.339,2.238q.068,2.933.053,5.87C-380.3,160.057-380.8,160.544-382.247,160.556Z" transform="translate(409.978 -147.076)" fill="#564fbd"/>
  <path id="Path_12823" data-name="Path 12823" d="M-146.766,227.958c-7.549.113-15.1.084-22.65.012a5.3,5.3,0,0,0-5.4,5.1c-.06,2.557-.079,5.117.012,7.669a4.762,4.762,0,0,0,4.9,4.654c3.948-.156,7.909-.038,11.865-.041h11.985a4.492,4.492,0,0,0,4.738-4.719c.019-2.4-.139-4.8.036-7.187A5.377,5.377,0,0,0-146.766,227.958Zm1.7,11.546c-.01,1.7-.652,2.339-2.437,2.348-3.514.022-7.031.007-10.545.007-3.433,0-6.868.007-10.3,0-2.041,0-2.732-.7-2.749-2.747-.012-1.636-.022-3.274.012-4.913.036-1.7.631-2.3,2.346-2.3q10.723-.022,21.446,0c1.744,0,2.207.489,2.224,2.217Q-145.045,236.81-145.063,239.5Z" transform="translate(231.27 -208.556)" fill="#564fbd"/>
  <path id="Path_12824" data-name="Path 12824" d="M-243.175,238.77a3.544,3.544,0,0,0-2.893-3.617,9.966,9.966,0,0,0-2.25-.264c-2.756-.034-5.515-.01-8.271-.029-1.091-.01-1.348-.35-1.151-1.406a1.9,1.9,0,0,1,1.926-1.6c3.2-.038,6.393-.031,9.591-.046,2.4-.01,2.48-.1,2.38-2.524-.046-1.089-.271-1.365-1.353-1.37-3.629-.022-7.271-.213-10.881.05-3.752.276-5.474,1.629-5.872,5.366a42.118,42.118,0,0,0-.017,6.827,5.071,5.071,0,0,0,5.352,5.109c1.6-.05,3.2-.007,4.8-.007v0c1.758,0,3.517,0,5.275,0a3.08,3.08,0,0,0,2.931-1.885C-242.868,241.876-243.172,240.307-243.175,238.77Zm-5.637,3.011c-2.238.017-4.487.191-6.717,0-1.524-.13-2.111-.435-2.138-1.147-.06-1.616-.158-2.329,1.495-2.336,1.2,0,2.4,0,3.6,0,1.279,0,2.557-.017,3.838,0,1.317.022,1.574.314,1.571,1.677C-247.166,241.32-247.555,241.771-248.812,241.78Z" transform="translate(297.573 -208.455)" fill="#564fbd"/>
  <path id="Path_12825" data-name="Path 12825" d="M-177.741,155.2a3.737,3.737,0,0,0-3.214-3.641,18.692,18.692,0,0,0-2.857-.264c-2.478-.036-4.956-.029-7.434,0-.772.007-1.171-.216-1.221-1.067-.137-2.317-.166-2.315-2.5-2.3h-.24c-1.221.019-1.31.079-1.324,1.276-.024,1.878-.007,3.757-.007,5.635,0,1.84-.05,3.68.012,5.517.089,2.706,1.192,4.2,3.872,4.644a8.275,8.275,0,0,0,1.307.134c2.838.012,5.676.038,8.513-.014a8.6,8.6,0,0,0,2.459-.434,3.6,3.6,0,0,0,2.634-3.49C-177.665,159.2-177.672,157.193-177.741,155.2Zm-3.982,4.035c-.014,1.787-.17,2.274-1.919,2.43a43.966,43.966,0,0,1-7.261-.084c-1.214-.094-1.516-.676-1.545-1.9-.029-1.276,0-2.555-.007-3.833-.007-.751.353-1.091,1.1-1.084,1.317.012,2.634,0,3.953,0v0c1.118,0,2.236-.019,3.354,0,1.989.043,2.3.362,2.324,2.312Q-181.711,158.155-181.723,159.232Z" transform="translate(247.756 -147.717)" fill="#564fbd"/>
  <path id="Path_12826" data-name="Path 12826" d="M-76.13,157.984c0,.679-.016,1.358,0,2.036a1.612,1.612,0,0,0,1.751,1.811c.717.039,1.437.019,2.155.012.582-.006.9.246.907.849,0,.08,0,.16.009.239.122,2.142.049,2.241-2.11,2.211a22.058,22.058,0,0,1-3.689-.213,3.421,3.421,0,0,1-3.024-3.71c-.035-1.756-.012-3.513-.023-5.27-.008-1.256-.062-1.267-1.25-1.356-.46-.035-1.263-.23-1.293-.44a7.582,7.582,0,0,1,.1-2.561c.037-.182.847-.3,1.294-.283.9.038,1.171-.343,1.172-1.209,0-2.165.036-2.165,2.169-2.168,1.8,0,1.8,0,1.822,1.884.016,1.438.041,1.463,1.487,1.47.679,0,1.358.022,2.036,0,.921-.026,1.314.431,1.284,1.319-.008.239.007.479,0,.718-.048,1.129-.19,1.265-1.378,1.282-.759.011-1.519.035-2.275-.006-.812-.043-1.189.267-1.15,1.1C-76.1,156.466-76.13,157.226-76.13,157.984Z" transform="translate(161.254 -147.728)" fill="#564fbd"/>
  <path id="Path_12827" data-name="Path 12827" d="M-257.8,171.03c0,1.2-.022,2.4.007,3.592.021.866-.364,1.227-1.217,1.227-2.753,0-2.85.176-2.8-2.573.038-2.227-.031-4.456.021-6.682.061-2.584,1.288-4.137,3.817-4.357,2.892-.252,5.813-.18,8.721-.23.678-.012,1.011.39,1.031,1.058q.005.18.011.359c.056,1.824-.114,2.014-1.91,2.031-1.876.018-3.753-.015-5.628.034-1.464.038-2,.611-2.035,2.069-.026,1.157-.005,2.315-.005,3.473Z" transform="translate(297.362 -158.425)" fill="#564fbd"/>
  <path id="Path_12828" data-name="Path 12828" d="M-105.44,173.152c0,1.672.055,3.348-.018,5.017-.057,1.312-.224,1.4-1.517,1.425h-.239c-2.149.014-2.295-.126-2.3-2.3,0-2.828,0-5.657.014-8.485.009-1.639.249-1.864,1.861-1.87h.239c1.905,0,2,.1,2,2.031v4.183Z" transform="translate(181.588 -162.174)" fill="#564fbd"/>
  <path id="Path_12829" data-name="Path 12829" d="M-105.42,148.956c-.01,1.68-.4,2.049-2.177,2.035-1.565-.012-1.973-.462-1.957-2.156.014-1.534.34-1.759,2.516-1.737C-105.631,147.113-105.411,147.366-105.42,148.956Z" transform="translate(181.622 -147.092)" fill="#564fbd"/>
  <path id="Path_12830" data-name="Path 12830" d="M-347.514,203.3h-3.248l-3.138,0q1.569,0,3.138,0Q-349.136,203.3-347.514,203.3Z" transform="translate(367.353 -189.813)" fill="#564fbd"/>
</svg>
