<svg id="Group_12350" data-name="Group 12350" xmlns="http://www.w3.org/2000/svg" width="82.07" height="33.593" viewBox="0 0 82.07 33.593">
  <path id="Path_12821" data-name="Path 12821" d="M-395.568,243.306q-6.4,0-12.792,0c-1.583,0-1.583-.007-1.579-1.557,0-.292.007-.583.007-.875,0-.5.272-.721.752-.726.328,0,.656-.01.984-.01h22.412a13.021,13.021,0,0,0,1.311-.024,1.377,1.377,0,0,0,1.417-1.578c-.011-1.013-.349-1.306-1.543-1.307q-11.206,0-22.412,0c-.692,0-1.385-.01-2.077-.011-.585,0-.857-.277-.854-.873.014-2.751-.3-2.548,2.385-2.549q11.425,0,22.849,0c1.337,0,1.555-.232,1.509-1.506-.039-1.079-.213-1.234-1.691-1.236q-11.1-.016-22.193-.007h-.547c-2.417,0-2.419-.029-2.322-2.454a1.067,1.067,0,0,1,1.019-1.173,10.225,10.225,0,0,1,1.413-.107c6.341-.006,12.682-.017,19.023.005,1.783.006,3.566.093,5.347.183a3.679,3.679,0,0,1,3.753,3.861,5.009,5.009,0,0,1-.8,3.542c-.145.182,0,.74.184,1.012.852,1.276.935,4.693.108,5.973a2.924,2.924,0,0,1-2.65,1.427C-386.9,243.3-391.232,243.306-395.568,243.306Z" transform="translate(409.982 -209.753)" fill="#fff"/>
  <path id="Path_12822" data-name="Path 12822" d="M-379.392,151.636a4.329,4.329,0,0,0-4.242-4.487c-.543-.046-1.089-.079-1.634-.072q-10.267.085-20.532.186a3.942,3.942,0,0,0-4.139,4.176c0,2.26.151,4.53-.026,6.775-.219,2.811,2.524,4.869,4.823,4.784,3.491-.133,6.993-.035,10.491-.037s7,0,10.493,0a4.64,4.64,0,0,0,4.766-4.655Q-379.331,154.969-379.392,151.636Zm-5.3,7.733c-2.4.015-4.8.013-7.2.009q-1.48,0-2.962,0-1.431,0-2.861,0c-2.286,0-4.574,0-6.862-.007-1.549-.007-1.958-.411-1.977-1.932q-.033-2.458,0-4.917a1.977,1.977,0,0,1,2.227-2.222q9.614-.016,19.228,0a1.852,1.852,0,0,1,2.133,2.041q.062,2.674.048,5.353C-382.916,158.913-383.369,159.357-384.69,159.368Z" transform="translate(409.977 -147.076)" fill="#fff"/>
  <path id="Path_12823" data-name="Path 12823" d="M-149.243,227.958c-6.884.1-13.77.077-20.654.011a4.834,4.834,0,0,0-4.928,4.648c-.055,2.332-.072,4.666.011,6.993a4.342,4.342,0,0,0,4.471,4.244c3.6-.142,7.212-.035,10.819-.037H-148.6a4.1,4.1,0,0,0,4.32-4.3c.018-2.185-.127-4.382.033-6.554A4.9,4.9,0,0,0-149.243,227.958Zm1.553,10.528c-.009,1.551-.6,2.133-2.222,2.142-3.2.02-6.411.007-9.616.007-3.13,0-6.263.007-9.4,0-1.862,0-2.492-.634-2.507-2.5-.011-1.492-.02-2.986.011-4.48.033-1.553.575-2.1,2.139-2.1q9.778-.02,19.556,0c1.59,0,2.012.446,2.028,2.021Q-147.673,236.03-147.689,238.487Z" transform="translate(226.301 -210.265)" fill="#fff"/>
  <path id="Path_12824" data-name="Path 12824" d="M-244.842,237.805a3.232,3.232,0,0,0-2.638-3.3,9.088,9.088,0,0,0-2.052-.241c-2.513-.031-5.029-.009-7.542-.026-1-.009-1.229-.319-1.05-1.282a1.736,1.736,0,0,1,1.757-1.461c2.916-.035,5.83-.028,8.746-.042,2.19-.009,2.262-.09,2.17-2.3-.042-.993-.247-1.245-1.234-1.249-3.31-.02-6.63-.195-9.922.046-3.421.252-4.992,1.485-5.355,4.893a38.4,38.4,0,0,0-.015,6.226,4.625,4.625,0,0,0,4.88,4.659c1.455-.046,2.914-.007,4.373-.007v0c1.6,0,3.207,0,4.81,0A2.808,2.808,0,0,0-245.242,242C-244.562,240.638-244.84,239.208-244.842,237.805Zm-5.141,2.745c-2.041.015-4.091.174-6.125,0-1.39-.119-1.925-.4-1.949-1.046-.055-1.473-.144-2.123,1.363-2.13,1.094,0,2.188,0,3.281,0,1.166,0,2.332-.015,3.5,0,1.2.02,1.435.287,1.433,1.529C-248.482,240.131-248.836,240.542-249.982,240.551Z" transform="translate(294.448 -210.161)" fill="#fff"/>
  <path id="Path_12825" data-name="Path 12825" d="M-179.4,154.556a3.407,3.407,0,0,0-2.931-3.321,17.045,17.045,0,0,0-2.605-.241c-2.26-.033-4.519-.026-6.779,0-.7.007-1.067-.2-1.113-.973-.125-2.113-.151-2.111-2.282-2.1h-.219c-1.113.018-1.194.072-1.207,1.164-.022,1.713-.007,3.426-.007,5.138,0,1.678-.046,3.356.011,5.031.081,2.467,1.087,3.83,3.531,4.235a7.544,7.544,0,0,0,1.192.122c2.588.011,5.176.035,7.763-.013a7.842,7.842,0,0,0,2.242-.4,3.285,3.285,0,0,0,2.4-3.183C-179.329,158.2-179.336,156.376-179.4,154.556Zm-3.631,3.679c-.013,1.63-.155,2.074-1.75,2.216a40.092,40.092,0,0,1-6.621-.077c-1.107-.085-1.382-.617-1.409-1.732-.026-1.164,0-2.33-.007-3.5-.007-.685.322-1,1-.989,1.2.011,2.4,0,3.6,0v0c1.019,0,2.039-.018,3.058,0,1.813.039,2.1.33,2.12,2.109Q-183.02,157.253-183.031,158.236Z" transform="translate(243.246 -147.735)" fill="#fff"/>
  <path id="Path_12826" data-name="Path 12826" d="M-76.714,157.1c0,.619-.014,1.238,0,1.857a1.47,1.47,0,0,0,1.6,1.651c.653.035,1.31.018,1.965.011.53-.005.824.225.827.774,0,.073,0,.145.008.218.112,1.953.044,2.044-1.924,2.017a20.114,20.114,0,0,1-3.364-.194,3.12,3.12,0,0,1-2.758-3.383c-.032-1.6-.011-3.2-.021-4.805-.007-1.145-.057-1.155-1.139-1.236-.42-.031-1.152-.209-1.179-.4a6.914,6.914,0,0,1,.087-2.335c.034-.166.773-.275,1.18-.258.824.035,1.068-.313,1.069-1.1,0-1.975.033-1.975,1.978-1.977,1.643,0,1.643,0,1.662,1.718.014,1.311.037,1.334,1.356,1.341.619,0,1.238.02,1.857,0,.84-.024,1.2.393,1.171,1.2-.007.218.007.437,0,.655-.044,1.029-.173,1.153-1.256,1.169-.692.01-1.385.031-2.075-.005-.74-.04-1.084.244-1.048,1.007C-76.689,155.714-76.714,156.407-76.714,157.1Z" transform="translate(154.338 -147.747)" fill="#fff"/>
  <path id="Path_12827" data-name="Path 12827" d="M-258.154,170.235c0,1.092-.02,2.185.007,3.276.019.79-.332,1.119-1.11,1.118-2.51,0-2.6.161-2.556-2.346.035-2.031-.029-4.063.019-6.093.055-2.356,1.175-3.773,3.481-3.974,2.637-.23,5.3-.164,7.953-.21.619-.011.922.355.94.965q0,.164.01.327c.051,1.663-.1,1.836-1.741,1.852-1.711.016-3.422-.013-5.132.031-1.335.034-1.826.557-1.856,1.887-.023,1.055,0,2.111,0,3.167Z" transform="translate(294.23 -158.74)" fill="#fff"/>
  <path id="Path_12828" data-name="Path 12828" d="M-105.8,172.6c0,1.525.05,3.053-.016,4.575-.052,1.2-.2,1.276-1.383,1.3h-.218c-1.96.013-2.093-.115-2.094-2.1,0-2.579,0-5.158.013-7.737.009-1.495.227-1.7,1.7-1.706h.218c1.737,0,1.827.092,1.827,1.852V172.6Z" transform="translate(175.238 -162.594)" fill="#fff"/>
  <path id="Path_12829" data-name="Path 12829" d="M-105.785,148.792c-.009,1.532-.369,1.869-1.985,1.856-1.427-.011-1.8-.421-1.785-1.966.013-1.4.31-1.6,2.294-1.584C-105.977,147.111-105.776,147.342-105.785,148.792Z" transform="translate(175.272 -147.092)" fill="#fff"/>
  <path id="Path_12830" data-name="Path 12830" d="M-348.077,203.3h-2.962l-2.861,0q1.431,0,2.861,0Q-349.556,203.3-348.077,203.3Z" transform="translate(366.168 -191.001)" fill="#fff"/>
</svg>
