<?xml version="1.0" encoding="iso-8859-1"?>
<!-- Generator: Adobe Illustrator 19.0.0, SVG Export Plug-In . SVG Version: 6.00 Build 0)  -->
<svg version="1.1" id="Layer_1" xmlns="http://www.w3.org/2000/svg" xmlns:xlink="http://www.w3.org/1999/xlink" x="0px" y="0px"
	 viewBox="0 0 512 512" style="enable-background:new 0 0 512 512;" xml:space="preserve">
<polygon style="fill:#AAA9AF;" points="351.982,105.081 255.145,201.919 408.589,368.51 512,265.099 "/>
<polygon style="fill:#DDDCDF;" points="160.018,105.081 256.855,201.919 103.411,368.51 0,265.099 "/>
<polygon style="fill:#EDEDEE;" points="256,105.081 95.982,265.099 128.876,297.992 383.124,297.992 416.018,265.099 "/>
<path style="fill:#E3744E;" d="M256,220.422L256,220.422c-94.868,0-171.774,76.906-171.774,171.774v14.723h343.548v-14.723
	C427.774,297.327,350.868,220.422,256,220.422z"/>
<path style="fill:#E05323;" d="M256,220.422L256,220.422c0,65.194,0,186.497,0,186.497h171.774v-14.723
	C427.774,297.327,350.868,220.422,256,220.422z"/>
<g>
</g>
<g>
</g>
<g>
</g>
<g>
</g>
<g>
</g>
<g>
</g>
<g>
</g>
<g>
</g>
<g>
</g>
<g>
</g>
<g>
</g>
<g>
</g>
<g>
</g>
<g>
</g>
<g>
</g>
</svg>
