
<svg version="1.0" xmlns="http://www.w3.org/2000/svg"
 width="1280.000000pt" height="1280.000000pt" viewBox="0 0 1280.000000 1280.000000"
 preserveAspectRatio="xMidYMid meet">
<metadata>
Created by potrace 1.15, written by Peter Selinger 2001-2017
</metadata>
<g transform="translate(0.000000,1280.000000) scale(0.100000,-0.100000)"
fill="#000000" stroke="none">
<path d="M1530 12215 c0 -377 3 -575 10 -575 7 0 10 198 10 575 0 377 -3 575
-10 575 -7 0 -10 -198 -10 -575z"/>
<path d="M11250 12215 c0 -377 3 -575 10 -575 7 0 10 198 10 575 0 377 -3 575
-10 575 -7 0 -10 -198 -10 -575z"/>
<path d="M10 11260 c0 -7 198 -10 575 -10 377 0 575 3 575 10 0 7 -198 10
-575 10 -377 0 -575 -3 -575 -10z"/>
<path d="M11640 11260 c0 -7 198 -10 575 -10 377 0 575 3 575 10 0 7 -198 10
-575 10 -377 0 -575 -3 -575 -10z"/>
<path d="M6230 11173 c-25 -2 -112 -10 -195 -18 -975 -100 -1895 -502 -2637
-1152 -732 -641 -1253 -1486 -1489 -2411 -156 -614 -190 -1267 -99 -1891 212
-1452 1077 -2719 2363 -3460 1047 -603 2323 -779 3521 -486 489 119 980 331
1427 616 488 309 948 744 1296 1224 825 1138 1106 2574 772 3943 -283 1158
-1004 2182 -2009 2849 -685 455 -1454 718 -2289 783 -122 9 -549 11 -661 3z
m812 -892 c898 -124 1703 -528 2314 -1163 1359 -1414 1473 -3584 271 -5126
l-81 -103 -603 603 -603 603 0 1735 0 1735 -29 60 c-111 233 -431 240 -557 13
l-29 -53 -5 -970 c-3 -533 -6 -971 -8 -972 -1 -1 -9 -9 -18 -17 -21 -22 -60
-20 -84 4 -20 20 -20 33 -20 1330 l0 1309 -21 58 c-29 78 -104 153 -182 182
-155 57 -316 -7 -389 -157 l-33 -67 -3 -1319 c-2 -1205 -4 -1321 -19 -1338
-21 -23 -65 -23 -86 0 -15 17 -17 150 -19 1563 l-3 1544 -23 50 c-33 71 -105
141 -172 166 -157 60 -327 -8 -402 -159 l-23 -47 -5 -1258 -5 -1258 -62 63
-63 63 -2 975 -3 975 -22 46 c-54 108 -167 179 -284 179 -129 -1 -251 -88
-294 -211 -13 -35 -15 -145 -15 -693 l0 -651 -712 713 -713 713 35 30 c69 60
223 172 353 257 515 338 1141 553 1777 611 178 16 671 6 842 -18z m-2299
-3976 c3 -1258 5 -1409 20 -1489 61 -324 165 -570 346 -814 70 -94 214 -247
281 -298 l50 -38 0 -423 0 -423 1105 0 1105 0 0 423 0 422 89 77 c140 122 310
337 388 493 14 28 26 51 27 52 1 1 203 -199 449 -445 l447 -447 -27 -23 c-252
-210 -607 -427 -924 -564 -694 -300 -1437 -392 -2194 -272 -1061 169 -2027
796 -2630 1709 -742 1122 -852 2545 -295 3777 125 275 314 583 502 815 l56 70
601 -601 600 -601 4 -1400z m656 743 l61 -63 0 -177 c0 -218 -9 -247 -72 -248
-54 0 -58 19 -58 297 0 139 2 253 4 253 2 0 31 -28 65 -62z"/>
<path d="M10 1540 c0 -7 198 -10 575 -10 377 0 575 3 575 10 0 7 -198 10 -575
10 -377 0 -575 -3 -575 -10z"/>
<path d="M11640 1540 c0 -7 198 -10 575 -10 377 0 575 3 575 10 0 7 -198 10
-575 10 -377 0 -575 -3 -575 -10z"/>
<path d="M1530 585 c0 -377 3 -575 10 -575 7 0 10 198 10 575 0 377 -3 575
-10 575 -7 0 -10 -198 -10 -575z"/>
<path d="M11250 585 c0 -377 3 -575 10 -575 7 0 10 198 10 575 0 377 -3 575
-10 575 -7 0 -10 -198 -10 -575z"/>
</g>
</svg>
