<svg id="iconError_MainDepartmentModal" xmlns="http://www.w3.org/2000/svg" width="65.662" height="57.857" viewBox="0 0 65.662 57.857" style="display:none;">
    <g id="alert" transform="translate(-1.935 -3.844)">
        <path id="Path_12880" data-name="Path 12880" d="M63.758,61.7H5.779a3.864,3.864,0,0,1-3.321-1.911,3.807,3.807,0,0,1-.01-3.836l29-50.194a3.829,3.829,0,0,1,6.633,0L67.014,55.83A3.838,3.838,0,0,1,63.758,61.7ZM34.667,7.6h-.031l-29,50.188.143.237H63.756a.17.17,0,0,0,.159-.157c-.012-.02-.078-.176-.09-.2L34.9,7.6Z" transform="translate(0 0)" fill="#ff5c5a" />
        <path id="Path_12881" data-name="Path 12881" d="M17.127,15.064v16a2.088,2.088,0,0,0,4.175,0v-16a2.088,2.088,0,1,0-4.177,0Zm0,0" transform="translate(15.85 9.522)" fill="#ff5c5a" />
        <path id="Path_12882" data-name="Path 12882" d="M19.214,24.209a2.087,2.087,0,0,0-2.088,2.082v1.4a2.088,2.088,0,0,0,4.177,0v-1.4A2.087,2.087,0,0,0,19.214,24.209Zm0,0" transform="translate(15.852 21.25)" fill="#ff5c5a" />
    </g>
</svg>